<svg width="80" height="80" viewBox="0 0 80 80" fill="none" xmlns="http://www.w3.org/2000/svg">
<g opacity="0.9">
<path d="M32.9826 61.7672C32.3649 61.7672 31.8593 61.272 31.8505 60.6514C31.8417 60.0264 32.3399 59.5119 32.9664 59.5031C38.5958 59.4191 43.9776 57.6163 48.5265 54.2879C50.7715 52.6207 52.7585 50.6337 54.4272 48.3843C57.8455 43.7174 59.6542 38.1705 59.6542 32.348C59.6542 17.3672 47.4652 5.17821 32.4843 5.17821C17.4947 5.17821 5.2998 17.3672 5.2998 32.348C5.2998 39.1302 7.81601 45.6307 12.3856 50.6499C12.8057 51.1128 12.7733 51.8277 12.3104 52.2493C11.8505 52.6708 11.1356 52.6369 10.7111 52.1741C5.76118 46.7363 3.03564 39.6947 3.03564 32.348C3.03564 16.1187 16.2461 2.91406 32.4843 2.91406C48.7137 2.91406 61.9183 16.1187 61.9183 32.348C61.9183 38.6555 59.9578 44.6638 56.2506 49.7271C54.4448 52.1608 52.3001 54.307 49.8694 56.1113C44.9328 59.7227 39.1014 61.6758 32.9988 61.7672C32.9944 61.7672 32.9885 61.7672 32.9826 61.7672Z" fill="#2C7B30"/>
<path d="M18.1445 57.8875C17.8438 57.8875 17.5268 57.7534 17.3146 57.5411C16.8724 57.0989 16.8724 56.3825 17.3146 55.9403C17.6728 55.5821 18.2123 55.5172 18.6368 55.7354C19.0156 55.9197 19.2765 56.3073 19.2765 56.7554C19.2765 57.3804 18.7695 57.8875 18.1445 57.8875Z" fill="#2C7B30"/>
<path d="M32.545 51.6539C31.9214 51.6539 31.4144 51.1498 31.4129 50.5248C31.4114 49.8998 31.917 49.3912 32.542 49.3898C41.9067 49.3618 49.5261 41.7173 49.5261 32.3482C49.5261 22.9511 41.8816 15.3066 32.4845 15.3066C23.08 15.3066 15.4282 22.9511 15.4282 32.3482C15.4282 36.3031 16.8153 40.1592 19.3345 43.2046C19.7325 43.6852 19.6647 44.3986 19.1826 44.7981C18.7021 45.1931 17.9886 45.1283 17.5892 44.6477C14.7354 41.197 13.1641 36.8293 13.1641 32.3482C13.1641 21.7026 21.8315 13.0425 32.4845 13.0425C43.1302 13.0425 51.7902 21.7026 51.7902 32.3482C51.7902 42.9629 43.1582 51.623 32.5479 51.6539H32.545Z" fill="#2C7B30"/>
<path d="M54.3296 61.4678C54.0392 61.4678 53.7503 61.3572 53.5292 61.1361L48.3493 55.9563C48.1135 55.7205 47.9941 55.3932 48.0221 55.0616C48.0486 54.7299 48.2211 54.4277 48.4923 54.2346C50.7697 52.6117 52.7479 50.6335 54.3708 48.3561C54.5639 48.0848 54.8661 47.9124 55.1978 47.8858C55.5427 47.8519 55.8567 47.9772 56.0925 48.2131L61.2724 53.3929C61.7146 53.8351 61.7146 54.5515 61.2724 54.9937L55.13 61.1361C54.9089 61.3572 54.62 61.4678 54.3296 61.4678ZM50.8729 55.2782L54.3296 58.7349L58.8711 54.1933L55.4145 50.7367C54.0834 52.4259 52.5622 53.9472 50.8729 55.2782Z" fill="#2C7B30"/>
<path d="M68.1047 76.832C65.8347 76.832 63.5646 75.9682 61.837 74.2406L52.2144 64.6179C51.1781 63.5787 51.1781 61.8909 52.2129 60.8532L60.9836 52.0826C62.0228 51.0448 63.7091 51.0434 64.7483 52.0826L74.3724 61.7052C77.8276 65.1619 77.8276 70.7839 74.3724 74.2406C72.6448 75.9682 70.3733 76.832 68.1047 76.832ZM62.8659 53.5669C62.7642 53.5669 62.661 53.6067 62.5829 53.6849L53.8152 62.4526C53.6604 62.6073 53.6604 62.8623 53.8167 63.0186L63.4379 72.6398C66.0101 75.209 70.1964 75.2149 72.7716 72.6398C75.3438 70.0661 75.3423 65.8797 72.7716 63.306L63.1475 53.6834C63.0708 53.6067 62.9676 53.5669 62.8659 53.5669Z" fill="#2C7B30"/>
<path d="M32.4696 42.3422C26.964 42.3422 22.4858 37.8523 22.4858 32.3349C22.4858 26.8293 26.964 22.3496 32.4696 22.3496C37.987 22.3496 42.477 26.8293 42.477 32.3349C42.477 37.8523 37.987 42.3422 32.4696 42.3422ZM32.4696 24.6138C28.2126 24.6138 24.75 28.0778 24.75 32.3349C24.75 36.6052 28.2126 40.0781 32.4696 40.0781C36.74 40.0781 40.2128 36.6052 40.2128 32.3349C40.2128 28.0778 36.74 24.6138 32.4696 24.6138Z" fill="#2C7B30"/>
<path d="M31.5438 34.6344C31.4922 34.6344 31.4421 34.6314 31.3905 34.624C31.0912 34.5828 30.8215 34.425 30.6402 34.1848L29.4845 32.6547C29.1086 32.155 29.2074 31.446 29.7056 31.0686C30.2053 30.6927 30.9143 30.79 31.2917 31.2897L31.7619 31.9118L33.886 30.2903C34.3843 29.9071 35.0948 30.0073 35.4721 30.5026C35.8524 30.9993 35.7566 31.7098 35.2599 32.0887L32.2307 34.4015C32.0317 34.5533 31.7899 34.6344 31.5438 34.6344Z" fill="#2C7B30"/>
<path d="M32.9765 70.8344H11.9387C11.3137 70.8344 10.8066 70.3273 10.8066 69.7023V56.7512C10.8066 56.1262 11.3137 55.6191 11.9387 55.6191H32.9765C33.6015 55.6191 34.1085 56.1262 34.1085 56.7512V69.7023C34.1085 70.3273 33.6015 70.8344 32.9765 70.8344ZM13.0708 68.5702H31.8444V57.8833H13.0708V68.5702Z" fill="#2C7B30"/>
<path d="M36.6498 77.0859H8.26538C7.64038 77.0859 7.1333 76.5789 7.1333 75.9539V71.0674C7.1333 69.6906 8.25358 68.5703 9.63035 68.5703H35.2834C36.6616 68.5703 37.7819 69.6906 37.7819 71.0674V75.9539C37.7819 76.5789 37.2748 77.0859 36.6498 77.0859ZM9.39745 74.8218H35.5177V71.0674C35.5177 70.9391 35.4131 70.8345 35.2834 70.8345H9.63035C9.50211 70.8345 9.39745 70.9391 9.39745 71.0674V74.8218Z" fill="#2C7B30"/>
<path d="M35.3984 57.8802H9.50957C8.53965 57.8802 7.69649 57.3289 7.30881 56.4401C6.91966 55.5512 7.0877 54.5562 7.7466 53.8443L20.6903 39.8584C21.5954 38.8811 23.3126 38.8782 24.2177 39.8599L37.1614 53.8443C37.8203 54.5562 37.9883 55.5512 37.5992 56.4401C37.2115 57.3289 36.3684 57.8802 35.3984 57.8802ZM22.3766 41.3973C22.3619 41.3973 22.353 41.3973 22.353 41.3973L9.40934 55.3832C9.3887 55.4038 9.34743 55.4495 9.38281 55.5335C9.41966 55.6161 9.48009 55.6161 9.50957 55.6161H35.3984C35.4279 55.6161 35.4883 55.6161 35.5252 55.5335C35.5606 55.4495 35.5193 55.4038 35.4987 55.3832L22.555 41.3973C22.555 41.3988 22.4326 41.3973 22.3766 41.3973Z" fill="#2C7B30"/>
<path d="M25.7801 70.8377H19.1335C18.5085 70.8377 18.0015 70.3306 18.0015 69.7056V64.7852C18.0015 62.3279 20.0003 60.3291 22.4575 60.3291C24.9133 60.3291 26.9121 62.3279 26.9121 64.7852V69.7056C26.9121 70.3306 26.4051 70.8377 25.7801 70.8377ZM20.2656 68.5735H24.648V64.7852C24.648 63.5764 23.6648 62.5933 22.4575 62.5933C21.2488 62.5933 20.2656 63.5764 20.2656 64.7852V68.5735Z" fill="#2C7B30"/>
<path d="M39.6394 77.0859H5.26879C4.64379 77.0859 4.13672 76.5789 4.13672 75.9539C4.13672 75.3289 4.64379 74.8218 5.26879 74.8218H39.6394C40.2644 74.8218 40.7714 75.3289 40.7714 75.9539C40.7714 76.5789 40.2644 77.0859 39.6394 77.0859Z" fill="#2C7B30"/>
<path d="M22.4608 53.6737C20.3161 53.6737 18.5723 51.9284 18.5723 49.7837C18.5723 47.6315 20.3161 45.8818 22.4608 45.8818C24.6056 45.8818 26.3494 47.6315 26.3494 49.7837C26.3494 51.9284 24.6056 53.6737 22.4608 53.6737ZM22.4608 48.146C21.5646 48.146 20.8364 48.8801 20.8364 49.7837C20.8364 50.6799 21.5646 51.4095 22.4608 51.4095C23.3571 51.4095 24.0852 50.6799 24.0852 49.7837C24.0852 48.8801 23.3571 48.146 22.4608 48.146Z" fill="#2C7B30"/>
</g>
</svg>
