<svg width="57" height="57" viewBox="0 0 57 57" fill="none" xmlns="http://www.w3.org/2000/svg">
<g filter="url(#filter0_d_27_268)">
<rect width="56" height="56" rx="8" fill="#0D631B" fill-opacity="0.05" shape-rendering="crispEdges"/>
<path d="M27.8499 38C27.9332 38 28.0166 37.9792 28.0999 37.9375C28.1832 37.8958 28.2457 37.8542 28.2874 37.8125L38.5374 27.5625C38.7874 27.3125 38.9697 27.0312 39.0843 26.7188C39.1989 26.4062 39.2562 26.0938 39.2562 25.7812C39.2562 25.4479 39.1989 25.1302 39.0843 24.8281C38.9697 24.526 38.7874 24.2604 38.5374 24.0312L33.2249 18.7188C32.9957 18.4688 32.7301 18.2865 32.428 18.1719C32.1259 18.0573 31.8082 18 31.4749 18C31.1624 18 30.8499 18.0573 30.5374 18.1719C30.2249 18.2865 29.9437 18.4688 29.6937 18.7188L29.3499 19.0625L31.6624 21.4062C31.9749 21.6979 32.2041 22.0312 32.3499 22.4062C32.4957 22.7812 32.5687 23.1771 32.5687 23.5938C32.5687 24.4688 32.2718 25.2031 31.678 25.7969C31.0843 26.3906 30.3499 26.6875 29.4749 26.6875C29.0582 26.6875 28.6572 26.6146 28.2718 26.4688C27.8864 26.3229 27.5478 26.1042 27.2562 25.8125L24.9124 23.5L19.4437 28.9688C19.3812 29.0312 19.3343 29.099 19.303 29.1719C19.2718 29.2448 19.2562 29.3229 19.2562 29.4062C19.2562 29.5729 19.3187 29.724 19.4437 29.8594C19.5687 29.9948 19.7145 30.0625 19.8812 30.0625C19.9645 30.0625 20.0478 30.0417 20.1312 30C20.2145 29.9583 20.277 29.9167 20.3187 29.875L24.5687 25.625L26.3187 27.375L22.0999 31.625C22.0374 31.6875 21.9905 31.7552 21.9593 31.8281C21.928 31.901 21.9124 31.9792 21.9124 32.0625C21.9124 32.2292 21.9749 32.375 22.0999 32.5C22.2249 32.625 22.3707 32.6875 22.5374 32.6875C22.6207 32.6875 22.7041 32.6667 22.7874 32.625C22.8707 32.5833 22.9332 32.5417 22.9749 32.5L27.2249 28.2812L28.9749 30.0312L24.7562 34.2812C24.6937 34.3229 24.6468 34.3854 24.6155 34.4688C24.5843 34.5521 24.5687 34.6354 24.5687 34.7188C24.5687 34.8854 24.6312 35.0312 24.7562 35.1562C24.8812 35.2812 25.027 35.3438 25.1937 35.3438C25.277 35.3438 25.3551 35.3281 25.428 35.2969C25.5009 35.2656 25.5687 35.2188 25.6312 35.1562L29.8812 30.9375L31.6312 32.6875L27.3812 36.9375C27.3187 37 27.2718 37.0677 27.2405 37.1406C27.2093 37.2135 27.1937 37.2917 27.1937 37.375C27.1937 37.5417 27.2614 37.6875 27.3968 37.8125C27.5322 37.9375 27.6832 38 27.8499 38ZM27.8187 40.5C27.0478 40.5 26.3655 40.2448 25.7718 39.7344C25.178 39.224 24.8291 38.5833 24.7249 37.8125C24.0166 37.7083 23.4228 37.4167 22.9437 36.9375C22.4645 36.4583 22.1728 35.8646 22.0687 35.1562C21.3603 35.0521 20.7718 34.7552 20.303 34.2656C19.8343 33.776 19.5478 33.1875 19.4437 32.5C18.652 32.3958 18.0062 32.0521 17.5062 31.4688C17.0062 30.8854 16.7562 30.1979 16.7562 29.4062C16.7562 28.9896 16.8343 28.5885 16.9905 28.2031C17.1468 27.8177 17.3707 27.4792 17.6624 27.1875L24.9124 19.9688L29.0062 24.0625C29.0478 24.125 29.1103 24.1719 29.1937 24.2031C29.277 24.2344 29.3603 24.25 29.4437 24.25C29.6312 24.25 29.7874 24.1927 29.9124 24.0781C30.0374 23.9635 30.0999 23.8125 30.0999 23.625C30.0999 23.5417 30.0843 23.4583 30.053 23.375C30.0218 23.2917 29.9749 23.2292 29.9124 23.1875L25.4437 18.7188C25.2145 18.4688 24.9489 18.2865 24.6468 18.1719C24.3447 18.0573 24.027 18 23.6937 18C23.3812 18 23.0687 18.0573 22.7562 18.1719C22.4437 18.2865 22.1624 18.4688 21.9124 18.7188L17.5062 23.1562C17.3187 23.3438 17.1624 23.5625 17.0374 23.8125C16.9124 24.0625 16.8291 24.3125 16.7874 24.5625C16.7457 24.8125 16.7457 25.0677 16.7874 25.3281C16.8291 25.5885 16.9124 25.8333 17.0374 26.0625L15.2249 27.875C14.8707 27.3958 14.6103 26.8698 14.4437 26.2969C14.277 25.724 14.2145 25.1458 14.2562 24.5625C14.2978 23.9792 14.4437 23.4115 14.6937 22.8594C14.9437 22.3073 15.2874 21.8125 15.7249 21.375L20.1312 16.9688C20.6312 16.4896 21.1884 16.125 21.803 15.875C22.4176 15.625 23.0478 15.5 23.6937 15.5C24.3395 15.5 24.9697 15.625 25.5843 15.875C26.1989 16.125 26.7457 16.4896 27.2249 16.9688L27.5687 17.3125L27.9124 16.9688C28.4124 16.4896 28.9697 16.125 29.5843 15.875C30.1989 15.625 30.8291 15.5 31.4749 15.5C32.1207 15.5 32.7509 15.625 33.3655 15.875C33.9801 16.125 34.527 16.4896 35.0062 16.9688L40.2874 22.25C40.7666 22.7292 41.1312 23.2812 41.3812 23.9062C41.6312 24.5312 41.7562 25.1667 41.7562 25.8125C41.7562 26.4583 41.6312 27.0885 41.3812 27.7031C41.1312 28.3177 40.7666 28.8646 40.2874 29.3438L30.0374 39.5625C29.7457 39.8542 29.4072 40.0833 29.0218 40.25C28.6364 40.4167 28.2353 40.5 27.8187 40.5Z" fill="#73B130"/>
</g>
<defs>
<filter id="filter0_d_27_268" x="0" y="0" width="57" height="57" filterUnits="userSpaceOnUse" color-interpolation-filters="sRGB">
<feFlood flood-opacity="0" result="BackgroundImageFix"/>
<feColorMatrix in="SourceAlpha" type="matrix" values="0 0 0 0 0 0 0 0 0 0 0 0 0 0 0 0 0 0 127 0" result="hardAlpha"/>
<feOffset dx="1" dy="1"/>
<feComposite in2="hardAlpha" operator="out"/>
<feColorMatrix type="matrix" values="0 0 0 0 0.45098 0 0 0 0 0.694118 0 0 0 0 0.188235 0 0 0 0.5 0"/>
<feBlend mode="normal" in2="BackgroundImageFix" result="effect1_dropShadow_27_268"/>
<feBlend mode="normal" in="SourceGraphic" in2="effect1_dropShadow_27_268" result="shape"/>
</filter>
</defs>
</svg>
