<svg width="59" height="53" viewBox="0 0 59 53" fill="none" xmlns="http://www.w3.org/2000/svg">
<path d="M33.5006 52.1542H0.844229C0.380071 52.1542 0.000305405 51.778 0.000305405 51.3138C-0.00672729 48.7434 0.0987632 42.312 1.25916 38.1768C1.5686 37.0761 1.94133 36.176 2.43713 35.3461C2.85558 34.6463 4.06169 32.8847 6.22776 31.668C8.22504 30.5463 10.1344 30.3775 11.3862 30.4338C11.5515 30.4408 11.7097 30.4971 11.8434 30.5955L17.0335 34.3826L22.5155 30.585C22.6456 30.4935 22.8003 30.4443 22.9585 30.4373C24.2104 30.381 26.1233 30.5463 28.117 31.6715C30.2796 32.8882 31.4892 34.6499 31.9076 35.3496C32.4035 36.1795 32.7797 37.0797 33.0856 38.1803C34.246 42.3155 34.3515 48.7434 34.3445 51.3173C34.3445 51.778 33.9682 52.1542 33.5006 52.1542ZM17.132 50.4664H32.6566C32.6355 47.8678 32.4667 42.2135 31.4611 38.6304C31.1903 37.6634 30.8809 36.9179 30.4589 36.2076C30.1108 35.6239 29.1016 34.1541 27.2907 33.1343C25.7646 32.2763 24.3018 32.0935 23.275 32.1075L17.5047 36.1056C17.2093 36.3096 16.8155 36.3061 16.5271 36.0951L11.0592 32.1111C10.0324 32.097 8.57316 32.2798 7.0541 33.1378C5.24318 34.1576 4.23399 35.6274 3.88587 36.2111C3.46391 36.9179 3.15447 37.6669 2.88371 38.6339C1.88155 42.217 1.71277 47.8678 1.68815 50.4699L17.132 50.4664Z" fill="#2C7B30"/>
<path d="M6.89617 52.1543C6.4285 52.1543 6.05225 51.7781 6.05225 51.3104V42.8044C6.05225 42.3367 6.4285 41.9604 6.89617 41.9604C7.36384 41.9604 7.74009 42.3367 7.74009 42.8044V51.3104C7.74009 51.7781 7.36033 52.1543 6.89617 52.1543Z" fill="#2C7B30"/>
<path d="M27.4494 52.1543C26.9817 52.1543 26.6055 51.7781 26.6055 51.3104V42.8044C26.6055 42.3367 26.9817 41.9604 27.4494 41.9604C27.9171 41.9604 28.2933 42.3367 28.2933 42.8044V51.3104C28.2933 51.7781 27.9171 52.1543 27.4494 52.1543Z" fill="#2C7B30"/>
<path d="M13.5067 38.7257C13.2782 38.7257 13.0496 38.6342 12.8843 38.4514L7.30038 32.3787C6.98391 32.0341 7.00853 31.5031 7.34961 31.1866C7.69421 30.8701 8.22518 30.8948 8.54165 31.2358L13.6298 36.7671L16.5378 34.7241C16.9176 34.4568 17.445 34.5482 17.7123 34.928C17.9795 35.3078 17.8881 35.8352 17.5083 36.1025L13.9955 38.5709C13.8478 38.6764 13.6755 38.7257 13.5067 38.7257Z" fill="#2C7B30"/>
<path d="M20.536 38.7254C20.3672 38.7254 20.1984 38.6762 20.0507 38.5707L16.5379 36.1022C16.1581 35.835 16.0632 35.3076 16.3339 34.9278C16.6012 34.548 17.1286 34.4531 17.5084 34.7238L20.4164 36.7668L25.5046 31.2356C25.821 30.891 26.3555 30.8699 26.6966 31.1864C27.0377 31.5029 27.0623 32.0373 26.7458 32.3784L21.1584 38.4547C20.9931 38.634 20.7645 38.7254 20.536 38.7254Z" fill="#2C7B30"/>
<path d="M17.9228 40.1318H16.1224C15.813 40.1318 15.5317 39.963 15.384 39.6922L14.1005 37.3503C13.8755 36.9424 14.0267 36.4291 14.4346 36.204C14.8424 35.979 15.3558 36.1302 15.5809 36.5381L16.6217 38.4404H17.4445L18.5663 36.5697C18.8054 36.1689 19.3258 36.0423 19.7231 36.2814C20.124 36.5205 20.2506 37.0409 20.0115 37.4383L18.6436 39.7168C18.4924 39.9771 18.2181 40.1318 17.9228 40.1318Z" fill="#2C7B30"/>
<path d="M14.4771 52.1539C14.4384 52.1539 14.3998 52.1504 14.3611 52.1469C13.9004 52.0836 13.5769 51.6581 13.6402 51.1974L15.2859 39.1751C15.3492 38.7144 15.7747 38.3909 16.2353 38.4542C16.6959 38.5175 17.0194 38.943 16.9562 39.4036L15.3105 51.426C15.2542 51.848 14.8921 52.1539 14.4771 52.1539Z" fill="#2C7B30"/>
<path d="M19.5685 52.1539C19.1535 52.1539 18.7914 51.848 18.7351 51.426L17.0895 39.4036C17.0262 38.943 17.3497 38.5175 17.8103 38.4542C18.2709 38.3909 18.6964 38.7144 18.7597 39.1751L20.4054 51.1974C20.4687 51.6581 20.1452 52.0836 19.6845 52.1469C19.6458 52.1504 19.6072 52.1539 19.5685 52.1539Z" fill="#2C7B30"/>
<path d="M17.2163 30.9608C14.9658 30.9608 12.8595 29.9974 11.2772 28.2462C9.7159 26.5197 8.85791 24.2305 8.85791 21.7972V18.2809C8.85791 17.9961 8.99856 17.7323 9.23768 17.5776C9.24471 17.5741 10.0851 17.008 10.9994 15.9988C11.2772 15.6893 11.7413 15.6296 12.0859 15.8581C12.0965 15.8652 13.2322 16.586 15.0783 16.9517C17.5363 17.437 20.0293 17.0959 22.4908 15.9355C22.8213 15.7808 23.2116 15.8546 23.4648 16.1183C23.4719 16.1289 24.365 17.0607 25.1738 17.5635C25.4234 17.7183 25.5746 17.989 25.5746 18.2809V21.7972C25.5746 24.2305 24.7166 26.5197 23.1554 28.2462C21.5765 29.9974 19.4667 30.9608 17.2163 30.9608ZM10.5458 18.7099V21.7972C10.5458 25.9184 13.5382 29.273 17.2163 29.273C20.8944 29.273 23.8868 25.9184 23.8868 21.7972V18.731C23.4191 18.3934 22.976 17.9996 22.6701 17.7077C21.2917 18.295 19.8852 18.6571 18.4786 18.7943C17.1987 18.9173 15.9187 18.847 14.6704 18.5938C13.3764 18.3266 12.3848 17.9152 11.7905 17.6198C11.2912 18.1121 10.8446 18.4813 10.5458 18.7099Z" fill="#2C7B30"/>
<path d="M9.70179 19.1249C9.37477 19.1249 9.06533 18.935 8.9282 18.615C8.52733 17.6902 8.46755 16.6916 8.41129 15.8125C8.36558 15.0916 8.30932 14.1985 8.51678 13.3335C8.69612 12.581 9.14269 11.7757 9.88113 10.872C9.99717 10.7314 10.1167 10.5942 10.2398 10.4606C12.2371 8.32268 15.5319 7.48227 16.1754 7.33458C17.4307 7.04624 18.6298 6.94427 19.741 7.02866C20.5251 7.08844 21.1862 7.19745 21.7699 7.3592C22.5505 7.57721 23.1589 7.99566 23.5281 8.57234C23.7144 8.8642 23.8305 9.16308 23.936 9.43033C24.0344 9.68702 24.1223 9.91207 24.2454 10.0562C24.4072 10.2461 24.6217 10.4149 24.8502 10.5942C25.1034 10.7947 25.3882 11.0197 25.6449 11.3081C26.2673 12.0078 26.9671 13.1788 27.0761 14.3602C27.1745 15.4503 26.742 16.4068 26.3517 17.1171C26.3412 17.1346 26.3165 17.1839 26.2814 17.2542C25.6133 18.5447 25.4621 18.7557 25.3038 18.9034C24.9592 19.2163 24.4247 19.1952 24.1118 18.8506C23.8164 18.5271 23.8199 18.0348 24.1083 17.7184C24.1751 17.6234 24.3474 17.3245 24.7834 16.4806C24.8291 16.3927 24.8608 16.3329 24.8713 16.3118C25.1456 15.8125 25.4515 15.1549 25.3953 14.5185C25.3284 13.7976 24.8256 12.9326 24.3825 12.4333C24.2243 12.2575 24.0204 12.0957 23.8059 11.9234C23.5351 11.7089 23.2292 11.4663 22.9584 11.1498C22.6525 10.7876 22.5013 10.3903 22.3642 10.0422C22.2833 9.83471 22.2094 9.63779 22.1145 9.49362C21.9317 9.21231 21.58 9.06463 21.3163 8.99078C20.8416 8.85716 20.286 8.76925 19.6144 8.71651C18.672 8.64267 17.6417 8.73409 16.5552 8.98375C15.0185 9.33539 12.7645 10.2391 11.4775 11.6175C11.3791 11.723 11.2841 11.832 11.1927 11.9445C10.6266 12.6337 10.282 13.235 10.1659 13.7273C10.0183 14.3462 10.064 15.0705 10.1027 15.7105C10.1519 16.4912 10.2011 17.2964 10.4824 17.9504C10.6688 18.3794 10.4719 18.8752 10.0429 19.0616C9.92684 19.1038 9.81432 19.1249 9.70179 19.1249Z" fill="#2C7B30"/>
<path d="M22.9972 32.1181C22.6491 32.1181 22.322 31.9 22.199 31.5519L21.1476 28.5419C20.9929 28.1024 21.2249 27.6206 21.6645 27.4659C22.104 27.3112 22.5858 27.5433 22.7405 27.9828L23.7919 30.9928C23.9466 31.4324 23.7145 31.9141 23.275 32.0688C23.1835 32.104 23.0886 32.1181 22.9972 32.1181Z" fill="#2C7B30"/>
<path d="M11.3475 32.1179C11.249 32.1179 11.1506 32.1003 11.0521 32.0651C10.6161 31.9034 10.3946 31.4181 10.5563 30.9786L11.6816 27.951C11.8433 27.515 12.3286 27.2899 12.7681 27.4552C13.2041 27.617 13.4257 28.1022 13.2639 28.5418L12.1387 31.5693C12.0121 31.9104 11.6886 32.1179 11.3475 32.1179Z" fill="#2C7B30"/>
<path d="M52.9428 27.2581C52.7529 27.2581 52.5595 27.1948 52.4013 27.0612L46.3883 22.0434L40.3754 27.0612C40.0167 27.3601 39.4857 27.3109 39.1869 26.9522C38.888 26.5935 38.9372 26.0626 39.2959 25.7637L45.8503 20.2957C46.1633 20.0355 46.6169 20.0355 46.9334 20.2957L53.4878 25.7637C53.8465 26.0626 53.8922 26.5935 53.5969 26.9522C53.4245 27.1526 53.1819 27.2581 52.9428 27.2581Z" fill="#2C7B30"/>
<path d="M51.3676 33.4295H47.9883C47.5207 33.4295 47.1444 33.0533 47.1444 32.5856V28.7528H45.6359V32.5856C45.6359 33.0533 45.2597 33.4295 44.792 33.4295H41.4128C40.9451 33.4295 40.5688 33.0533 40.5688 32.5856V25.0993C40.5688 24.6316 40.9451 24.2554 41.4128 24.2554C41.8804 24.2554 42.2567 24.6316 42.2567 25.0993V31.7417H43.9481V27.9089C43.9481 27.4412 44.3243 27.0649 44.792 27.0649H47.9883C48.456 27.0649 48.8323 27.4412 48.8323 27.9089V31.7417H50.5236V25.0993C50.5236 24.6316 50.8999 24.2554 51.3676 24.2554C51.8352 24.2554 52.2115 24.6316 52.2115 25.0993V32.5856C52.2115 33.0498 51.8317 33.4295 51.3676 33.4295Z" fill="#2C7B30"/>
<path d="M38.0158 42.8284C37.9173 42.8284 37.8189 42.8108 37.7239 42.7757C37.3899 42.6526 37.1719 42.3361 37.1719 41.9845V37.2022H35.1887C34.721 37.2022 34.3447 36.826 34.3447 36.3583V17.1696C34.3447 16.7019 34.721 16.3257 35.1887 16.3257H57.5913C58.059 16.3257 58.4352 16.7019 58.4352 17.1696V36.3583C58.4352 36.826 58.059 37.2022 57.5913 37.2022H43.1778L38.6593 42.533C38.494 42.7229 38.2584 42.8284 38.0158 42.8284ZM36.0291 35.5144H38.0123C38.48 35.5144 38.8562 35.8906 38.8562 36.3583V39.6848L42.137 35.8133C42.2987 35.6234 42.5343 35.5144 42.7804 35.5144H56.7403V18.0135H36.0291V35.5144Z" fill="#2C7B30"/>
</svg>
