<svg width="60" height="55" viewBox="0 0 60 55" fill="none" xmlns="http://www.w3.org/2000/svg">
<path d="M55.2076 35.6059C62.9513 23.0339 53.75 7 39.2648 7C26.875 7 17.5826 19.0254 21.3178 31.3242C18.2203 30.5953 14.8496 30.5042 11.5699 31.142C11.2055 29.6843 9.83899 28.6822 8.29026 28.6822L0.911017 28.7733C0.364407 28.7733 0 29.2288 0 29.6843C0 30.1398 0.455509 30.5953 0.911017 30.5953L8.29026 30.5042C9.11017 30.5042 9.83899 31.2331 9.83899 32.053C10.0212 48.6335 9.93009 46.9026 9.93009 47.4492C9.93009 48.2691 9.20127 48.9979 8.38136 48.9979L1.00212 49.089C0.455509 49.089 0.0911016 49.5445 0.0911016 50C0.0911016 50.4555 0.54661 50.911 1.00212 50.911L8.38136 50.8199C9.74788 50.8199 11.1144 49.9089 11.5699 48.4513L24.6886 53.2797C29.8814 55.1928 35.803 54.8284 40.8136 51.9132L58.3962 41.892C61.8581 39.9788 59.2161 34.786 55.2076 35.6059ZM43.4555 40.161C43.6377 39.7055 43.6377 39.1589 43.6377 38.6123C49.7415 34.2394 46.6441 31.6886 45.1865 29.5932C45.1865 27.2246 47.2818 26.2225 48.7394 26.9513C49.1038 27.1335 49.5593 27.0424 49.8326 26.7691C52.1102 24.1271 55.8454 28.8644 55.0254 31.6886C54.3877 33.5106 53.3856 35.2415 52.1102 36.6992L43.4555 40.161ZM51.5636 14.197C47.464 17.9322 46.7352 14.2881 44.0932 14.0148C41.3602 13.7415 37.625 18.0233 36.8051 19.9364C36.2585 21.0297 37.1695 25.5848 36.9873 25.767C35.7119 27.589 28.4237 29.5021 27.786 27.8623C26.7839 25.0381 34.8009 21.3941 34.5276 16.2013C34.5276 15.2903 34.072 14.9258 37.625 8.82203C38.1716 8.73093 38.6271 8.73093 39.1737 8.73093C44.0932 8.82203 48.4661 10.9174 51.5636 14.197ZM35.3475 9.27754C32.4322 14.4703 32.7055 14.9258 32.7055 16.3835C32.8877 20.6653 24.4153 24.2182 26.0551 28.5911C27.4216 32.3263 36.6229 29.5021 38.4449 26.8602C39.6292 25.2203 37.8983 21.6674 38.3538 20.6653C39.1737 18.8432 42.3623 15.6547 43.8199 15.8369C45.3687 16.0191 47.5551 20.0275 52.6568 15.6547C55.1165 18.9343 56.392 23.125 55.9365 27.4068C54.2966 24.5826 51.1992 23.0339 48.8305 25.1292C46.1886 24.2182 43 26.3136 43.1822 29.9576C43.2733 31.8708 48.0106 32.7818 42.7267 36.9725C42.3623 36.6081 41.8157 36.4259 41.178 36.3348L30.5191 36.4259C28.5148 34.4216 25.964 32.964 23.2309 31.9619C19.5869 22.214 25.4174 11.5551 35.3475 9.27754ZM57.5763 40.3432L39.9937 50.2733C35.5297 52.8242 30.1547 53.2797 25.3263 51.4576L11.661 46.447V32.964C18.3114 31.5064 25.3263 33.5106 29.6992 37.9746C29.8814 38.1568 30.0636 38.2479 30.3369 38.2479L41.3602 38.1568C41.6335 38.1568 41.8157 38.339 41.8157 38.6123C41.8157 40.7076 40.0848 42.4386 37.9894 42.5297L25.5996 42.6208C25.053 42.6208 24.6886 43.0763 24.6886 43.5318C24.6886 43.9873 25.1441 44.4428 25.5996 44.4428C28.2415 44.4428 35.5297 44.3517 37.9894 44.3517C39.447 44.3517 40.8136 43.8051 41.8157 42.803C46.7352 40.8898 50.0148 39.5233 55.0254 37.5191C57.303 36.6081 59.3072 39.3411 57.5763 40.3432Z" fill="#2C7B30"/>
</svg>
