<svg width="70" height="48" viewBox="0 0 70 48" fill="none" xmlns="http://www.w3.org/2000/svg">
<path d="M59.9876 12.7261C61.5949 12.4684 63.9982 13.3719 65.2278 14.3638C69.8698 18.1101 70.4104 25.6272 66.7639 30.231C65.2483 32.1447 63.5286 33.1757 61.0862 33.4507C59.1045 33.6114 57.2025 32.9341 55.6507 31.7105C49.2749 26.6836 51.0623 13.6039 59.9876 12.7261ZM62.7952 16.816C62.0047 16.2858 61.0097 16.0104 60.0647 16.1275C58.5164 16.3916 57.5508 17.0972 56.6467 18.4302C54.4652 21.6461 54.8998 26.9487 58.1546 29.3218C58.8578 29.8344 60.0668 30.1773 60.9329 30.0201C60.9489 30.0172 60.9652 30.0144 60.9807 30.0113C66.6065 28.9301 67.1562 19.7399 62.7952 16.816Z" fill="white"/>
<path d="M27.5947 12.667C29.6819 12.7369 32.109 12.4434 34.002 13.3154C40.4069 16.2667 41.4209 25.6578 36.9521 30.6875C35.9936 31.7667 35.1098 32.4305 33.793 32.9463C32.8269 33.3209 32.0321 33.4447 31.0156 33.5234L31.0244 38.6865C29.8809 38.6739 28.7371 38.6795 27.5938 38.7031L27.5947 12.667ZM31.0264 16.0791C30.9609 20.0766 31.0567 24.0962 31.0195 28.0957C31.0134 28.7496 31.0136 29.414 31.0244 30.0674C32.5378 29.8412 33.3511 29.583 34.4072 28.3555C35.9365 26.5207 36.3882 24.3218 36.1602 21.9961C35.9876 20.2347 35.1269 18.2807 33.7559 17.124C32.921 16.4199 32.0873 16.1822 31.0264 16.0791Z" fill="white"/>
<path d="M25.8257 12.6709C25.8598 14.9478 25.8261 17.3139 25.8266 19.5986L25.8335 33.5078L24.9145 33.5107C21.5561 33.5174 19.3582 33.5856 16.771 31.0098C12.7075 26.9137 12.7193 19.2105 16.7954 15.1211C19.4568 12.4512 21.6856 12.6975 25.1274 12.6826L25.8257 12.6709ZM22.3237 16.0732C22.2034 16.0542 22.1604 16.0634 22.0425 16.0801C20.7591 16.3204 19.891 16.7503 19.0347 17.7568C16.4346 20.8128 16.5665 25.5489 19.147 28.5459C20.235 29.6547 20.856 29.8801 22.353 30.123C22.4144 29.0371 22.3921 16.1928 22.3237 16.0732Z" fill="white"/>
<path d="M33.6434 0.0137215C42.018 -0.165553 50.958 1.40847 58.5654 4.93555C62.597 6.80448 67.2378 9.92785 69.895 13.5486C69.048 13.0027 68.1936 12.1772 67.3626 11.5682C58.7005 5.21952 46.8231 2.72944 36.2474 2.53237C25.2777 2.39373 13.0495 4.53175 3.75851 10.6548C2.43304 11.5283 1.20275 12.5706 0 13.6029C0.378303 13.0172 1.16352 12.0443 1.65845 11.5518C9.92286 3.32902 22.3955 0.39599 33.6434 0.0137215Z" fill="#9FCB32"/>
<path d="M49.9058 12.6786C49.9984 12.6777 49.954 12.6657 50.0359 12.734C50.0657 13.8414 50.0481 15.02 50.0481 16.133C48.8253 16.1863 47.9383 16.5704 47.0697 17.4392C46.1476 18.3742 45.4965 19.5413 45.1846 20.8166C44.7376 22.5982 44.8761 25.106 44.879 27.0086L44.8834 33.5075L41.5668 33.5101L41.4556 33.4846C41.3923 33.3162 41.4259 31.8896 41.4259 31.5921L41.4279 27.8643C41.423 23.3854 40.9278 19.1917 44.0909 15.5727C45.787 13.6321 47.3914 12.878 49.9058 12.6786Z" fill="white"/>
<path d="M11.7063 12.7286L11.8757 12.7139C12.0061 12.8612 11.9488 15.6689 11.9472 16.0985C10.6266 16.274 9.90221 16.4571 8.91503 17.4507C8.02585 18.3594 7.39504 19.4885 7.08756 20.7219C6.64516 22.4451 6.74098 24.8218 6.74196 26.6266L6.7749 33.4832L3.64998 33.5117C3.46736 33.5069 3.46044 33.537 3.33801 33.4479C3.24712 31.6765 3.32924 29.3852 3.32305 27.5773C3.30814 23.2326 2.88382 19.0502 6.01591 15.5381C7.68498 13.6665 9.24586 12.8784 11.7063 12.7286Z" fill="white"/>
<path d="M38.7253 39.5577C38.7253 39.771 38.6737 39.9527 38.5703 40.1027C38.467 40.2494 38.3187 40.3627 38.1253 40.4427C37.9353 40.5227 37.7103 40.5627 37.4503 40.5627C37.317 40.5627 37.1887 40.556 37.0653 40.5427C36.9453 40.5294 36.8353 40.511 36.7353 40.4877C36.6353 40.461 36.547 40.4294 36.4703 40.3927V39.9627C36.5903 40.016 36.7387 40.0644 36.9153 40.1077C37.0953 40.151 37.2803 40.1727 37.4703 40.1727C37.647 40.1727 37.7953 40.1494 37.9153 40.1027C38.0353 40.056 38.1253 39.9894 38.1853 39.9027C38.2453 39.816 38.2753 39.7144 38.2753 39.5977C38.2753 39.481 38.2503 39.3827 38.2003 39.3027C38.1503 39.2227 38.0637 39.1494 37.9403 39.0827C37.8203 39.0127 37.652 38.9394 37.4353 38.8627C37.282 38.806 37.147 38.746 37.0303 38.6827C36.917 38.616 36.822 38.541 36.7453 38.4577C36.6687 38.3744 36.6103 38.2794 36.5703 38.1727C36.5337 38.066 36.5153 37.9427 36.5153 37.8027C36.5153 37.6127 36.5637 37.451 36.6603 37.3177C36.757 37.181 36.8903 37.076 37.0603 37.0027C37.2337 36.9294 37.432 36.8927 37.6553 36.8927C37.852 36.8927 38.032 36.911 38.1953 36.9477C38.3587 36.9844 38.507 37.0327 38.6403 37.0927L38.5003 37.4777C38.377 37.4244 38.242 37.3794 38.0953 37.3427C37.952 37.306 37.802 37.2877 37.6453 37.2877C37.4953 37.2877 37.3703 37.3094 37.2703 37.3527C37.1703 37.396 37.0953 37.4577 37.0453 37.5377C36.9953 37.6144 36.9703 37.7044 36.9703 37.8077C36.9703 37.9277 36.9953 38.0277 37.0453 38.1077C37.0953 38.1877 37.177 38.2594 37.2903 38.3227C37.4037 38.386 37.557 38.4544 37.7503 38.5277C37.9603 38.6044 38.137 38.6877 38.2803 38.7777C38.427 38.8644 38.537 38.9694 38.6103 39.0927C38.687 39.216 38.7253 39.371 38.7253 39.5577ZM39.8245 37.8327V40.5127H39.3845V37.8327H39.8245ZM39.6095 36.8277C39.6761 36.8277 39.7345 36.851 39.7845 36.8977C39.8378 36.941 39.8645 37.011 39.8645 37.1077C39.8645 37.201 39.8378 37.271 39.7845 37.3177C39.7345 37.3644 39.6761 37.3877 39.6095 37.3877C39.5361 37.3877 39.4745 37.3644 39.4245 37.3177C39.3745 37.271 39.3495 37.201 39.3495 37.1077C39.3495 37.011 39.3745 36.941 39.4245 36.8977C39.4745 36.851 39.5361 36.8277 39.6095 36.8277ZM41.9635 37.7827C42.2835 37.7827 42.5252 37.861 42.6885 38.0177C42.8519 38.171 42.9335 38.421 42.9335 38.7677V40.5127H42.4985V38.7977C42.4985 38.581 42.4502 38.4194 42.3535 38.3127C42.2569 38.206 42.1052 38.1527 41.8985 38.1527C41.6019 38.1527 41.3969 38.236 41.2835 38.4027C41.1702 38.5694 41.1135 38.8094 41.1135 39.1227V40.5127H40.6735V37.8327H41.0285L41.0935 38.1977H41.1185C41.1785 38.1044 41.2519 38.0277 41.3385 37.9677C41.4285 37.9044 41.5269 37.8577 41.6335 37.8277C41.7402 37.7977 41.8502 37.7827 41.9635 37.7827ZM44.8394 40.5627C44.6027 40.5627 44.391 40.5144 44.2044 40.4177C44.021 40.321 43.876 40.171 43.7694 39.9677C43.666 39.7644 43.6144 39.5044 43.6144 39.1877C43.6144 38.8577 43.6694 38.5894 43.7794 38.3827C43.8894 38.176 44.0377 38.0244 44.2244 37.9277C44.4144 37.831 44.6294 37.7827 44.8694 37.7827C45.006 37.7827 45.1377 37.7977 45.2644 37.8277C45.391 37.8544 45.4944 37.8877 45.5744 37.9277L45.4394 38.2927C45.3594 38.2627 45.266 38.2344 45.1594 38.2077C45.0527 38.181 44.9527 38.1677 44.8594 38.1677C44.6794 38.1677 44.531 38.206 44.4144 38.2827C44.2977 38.3594 44.211 38.4727 44.1544 38.6227C44.0977 38.7727 44.0694 38.9594 44.0694 39.1827C44.0694 39.396 44.0977 39.5777 44.1544 39.7277C44.211 39.8777 44.296 39.991 44.4094 40.0677C44.5227 40.1444 44.6644 40.1827 44.8344 40.1827C44.981 40.1827 45.1094 40.1677 45.2194 40.1377C45.3327 40.1077 45.436 40.071 45.5294 40.0277V40.4177C45.4394 40.4644 45.3394 40.4994 45.2294 40.5227C45.1227 40.5494 44.9927 40.5627 44.8394 40.5627ZM47.2017 37.7827C47.4317 37.7827 47.6284 37.8327 47.7917 37.9327C47.9584 38.0327 48.085 38.1744 48.1717 38.3577C48.2617 38.5377 48.3067 38.7494 48.3067 38.9927V39.2577H46.4717C46.4784 39.561 46.555 39.7927 46.7017 39.9527C46.8517 40.1094 47.06 40.1877 47.3267 40.1877C47.4967 40.1877 47.6467 40.1727 47.7767 40.1427C47.91 40.1094 48.0467 40.0627 48.1867 40.0027V40.3877C48.05 40.4477 47.915 40.491 47.7817 40.5177C47.6484 40.5477 47.49 40.5627 47.3067 40.5627C47.0534 40.5627 46.8284 40.511 46.6317 40.4077C46.4384 40.3044 46.2867 40.151 46.1767 39.9477C46.07 39.741 46.0167 39.4894 46.0167 39.1927C46.0167 38.8994 46.065 38.6477 46.1617 38.4377C46.2617 38.2277 46.4 38.066 46.5767 37.9527C46.7567 37.8394 46.965 37.7827 47.2017 37.7827ZM47.1967 38.1427C46.9867 38.1427 46.82 38.211 46.6967 38.3477C46.5767 38.481 46.505 38.6677 46.4817 38.9077H47.8467C47.8467 38.7544 47.8234 38.621 47.7767 38.5077C47.73 38.3944 47.6584 38.306 47.5617 38.2427C47.4684 38.176 47.3467 38.1427 47.1967 38.1427ZM51.838 40.5127H51.408V38.0177C51.408 37.921 51.408 37.8394 51.408 37.7727C51.4113 37.706 51.4147 37.6444 51.418 37.5877C51.4213 37.5277 51.4247 37.466 51.428 37.4027C51.3747 37.456 51.3263 37.501 51.283 37.5377C51.2397 37.5744 51.1847 37.621 51.118 37.6777L50.738 37.9877L50.508 37.6927L51.473 36.9427H51.838V40.5127ZM55.5243 38.4677C55.5243 38.671 55.5093 38.8744 55.4793 39.0777C55.4526 39.2777 55.4043 39.4677 55.3343 39.6477C55.2643 39.8244 55.1676 39.9827 55.0443 40.1227C54.921 40.2594 54.7643 40.3677 54.5743 40.4477C54.3843 40.5244 54.1543 40.5627 53.8843 40.5627C53.8176 40.5627 53.7393 40.5577 53.6493 40.5477C53.5626 40.541 53.491 40.5294 53.4343 40.5127V40.1377C53.4943 40.1577 53.5643 40.1744 53.6443 40.1877C53.7243 40.1977 53.801 40.2027 53.8743 40.2027C54.1076 40.2027 54.2993 40.1644 54.4493 40.0877C54.6026 40.011 54.7243 39.9077 54.8143 39.7777C54.9043 39.6444 54.9693 39.491 55.0093 39.3177C55.0493 39.141 55.0726 38.956 55.0793 38.7627H55.0493C54.9993 38.8394 54.936 38.9094 54.8593 38.9727C54.7826 39.036 54.6893 39.086 54.5793 39.1227C54.4726 39.1594 54.346 39.1777 54.1993 39.1777C53.996 39.1777 53.816 39.136 53.6593 39.0527C53.506 38.966 53.386 38.8427 53.2993 38.6827C53.216 38.5227 53.1743 38.3277 53.1743 38.0977C53.1743 37.8477 53.221 37.6327 53.3143 37.4527C53.411 37.2727 53.5443 37.1344 53.7143 37.0377C53.8843 36.941 54.0843 36.8927 54.3143 36.8927C54.4843 36.8927 54.6426 36.926 54.7893 36.9927C54.936 37.056 55.0643 37.1527 55.1743 37.2827C55.2843 37.4127 55.3693 37.576 55.4293 37.7727C55.4926 37.9694 55.5243 38.201 55.5243 38.4677ZM54.3143 37.2627C54.1076 37.2627 53.9376 37.331 53.8043 37.4677C53.6743 37.6044 53.6093 37.8127 53.6093 38.0927C53.6093 38.3227 53.6643 38.5044 53.7743 38.6377C53.8876 38.7677 54.061 38.8327 54.2943 38.8327C54.4543 38.8327 54.5926 38.801 54.7093 38.7377C54.826 38.671 54.916 38.5877 54.9793 38.4877C55.046 38.3877 55.0793 38.2844 55.0793 38.1777C55.0793 38.071 55.0626 37.9644 55.0293 37.8577C54.9993 37.7477 54.9526 37.6477 54.8893 37.5577C54.826 37.4677 54.746 37.396 54.6493 37.3427C54.5526 37.2894 54.441 37.2627 54.3143 37.2627ZM58.3856 38.4677C58.3856 38.671 58.3706 38.8744 58.3406 39.0777C58.314 39.2777 58.2656 39.4677 58.1956 39.6477C58.1256 39.8244 58.029 39.9827 57.9056 40.1227C57.7823 40.2594 57.6256 40.3677 57.4356 40.4477C57.2456 40.5244 57.0156 40.5627 56.7456 40.5627C56.679 40.5627 56.6006 40.5577 56.5106 40.5477C56.424 40.541 56.3523 40.5294 56.2956 40.5127V40.1377C56.3556 40.1577 56.4256 40.1744 56.5056 40.1877C56.5856 40.1977 56.6623 40.2027 56.7356 40.2027C56.969 40.2027 57.1606 40.1644 57.3106 40.0877C57.464 40.011 57.5856 39.9077 57.6756 39.7777C57.7656 39.6444 57.8306 39.491 57.8706 39.3177C57.9106 39.141 57.934 38.956 57.9406 38.7627H57.9106C57.8606 38.8394 57.7973 38.9094 57.7206 38.9727C57.644 39.036 57.5506 39.086 57.4406 39.1227C57.334 39.1594 57.2073 39.1777 57.0606 39.1777C56.8573 39.1777 56.6773 39.136 56.5206 39.0527C56.3673 38.966 56.2473 38.8427 56.1606 38.6827C56.0773 38.5227 56.0356 38.3277 56.0356 38.0977C56.0356 37.8477 56.0823 37.6327 56.1756 37.4527C56.2723 37.2727 56.4056 37.1344 56.5756 37.0377C56.7456 36.941 56.9456 36.8927 57.1756 36.8927C57.3456 36.8927 57.504 36.926 57.6506 36.9927C57.7973 37.056 57.9256 37.1527 58.0356 37.2827C58.1456 37.4127 58.2306 37.576 58.2906 37.7727C58.354 37.9694 58.3856 38.201 58.3856 38.4677ZM57.1756 37.2627C56.969 37.2627 56.799 37.331 56.6656 37.4677C56.5356 37.6044 56.4706 37.8127 56.4706 38.0927C56.4706 38.3227 56.5256 38.5044 56.6356 38.6377C56.749 38.7677 56.9223 38.8327 57.1556 38.8327C57.3156 38.8327 57.454 38.801 57.5706 38.7377C57.6873 38.671 57.7773 38.5877 57.8406 38.4877C57.9073 38.3877 57.9406 38.2844 57.9406 38.1777C57.9406 38.071 57.924 37.9644 57.8906 37.8577C57.8606 37.7477 57.814 37.6477 57.7506 37.5577C57.6873 37.4677 57.6073 37.396 57.5106 37.3427C57.414 37.2894 57.3023 37.2627 57.1756 37.2627ZM60.022 38.3227C60.2653 38.3227 60.477 38.3644 60.657 38.4477C60.837 38.531 60.9753 38.651 61.072 38.8077C61.172 38.961 61.222 39.1494 61.222 39.3727C61.222 39.6194 61.1686 39.8327 61.062 40.0127C60.9553 40.1894 60.802 40.326 60.602 40.4227C60.4053 40.516 60.167 40.5627 59.887 40.5627C59.7036 40.5627 59.5303 40.546 59.367 40.5127C59.207 40.4794 59.072 40.431 58.962 40.3677V39.9527C59.082 40.026 59.227 40.0844 59.397 40.1277C59.5703 40.1677 59.7353 40.1877 59.892 40.1877C60.0686 40.1877 60.222 40.161 60.352 40.1077C60.4853 40.051 60.5886 39.966 60.662 39.8527C60.7353 39.736 60.772 39.591 60.772 39.4177C60.772 39.1844 60.7003 39.006 60.557 38.8827C60.4136 38.756 60.187 38.6927 59.877 38.6927C59.7836 38.6927 59.677 38.701 59.557 38.7177C59.437 38.7344 59.3403 38.751 59.267 38.7677L59.047 38.6277L59.182 36.9427H60.972V37.3427H59.557L59.472 38.3777C59.5286 38.3677 59.6053 38.356 59.702 38.3427C59.7986 38.3294 59.9053 38.3227 60.022 38.3227Z" fill="white"/>
</svg>
