<svg width="57" height="57" viewBox="0 0 57 57" fill="none" xmlns="http://www.w3.org/2000/svg">
<g filter="url(#filter0_d_27_293)">
<rect width="56" height="56" rx="8" fill="#0D631B" fill-opacity="0.05" shape-rendering="crispEdges"/>
<path d="M37.0938 24.4688L32.6875 20.0625L30.0312 22.6875L27.375 20.0625L30.9062 16.5C31.1562 16.25 31.4375 16.0677 31.75 15.9531C32.0625 15.8385 32.375 15.7812 32.6875 15.7812C33.0208 15.7812 33.3385 15.8385 33.6406 15.9531C33.9427 16.0677 34.2083 16.25 34.4375 16.5L37.0938 19.1562C37.4688 19.5104 37.7448 19.9219 37.9219 20.3906C38.099 20.8594 38.1875 21.3333 38.1875 21.8125C38.1875 22.2917 38.099 22.7604 37.9219 23.2188C37.7448 23.6771 37.4688 24.0938 37.0938 24.4688ZM19.875 30.2188C19.5 29.8438 19.3125 29.401 19.3125 28.8906C19.3125 28.3802 19.5 27.9375 19.875 27.5625L22.9375 24.4688L25.5938 27.125L22.5 30.2188C22.1458 30.5938 21.7135 30.7812 21.2031 30.7812C20.6927 30.7812 20.25 30.5938 19.875 30.2188ZM18.5312 39.5C18.3021 39.25 18.125 38.974 18 38.6719C17.875 38.3698 17.8125 38.0521 17.8125 37.7188C17.8125 37.3854 17.8698 37.0677 17.9844 36.7656C18.099 36.4635 18.2812 36.1875 18.5312 35.9375L27.375 27.125L23.4062 23.125C23.0312 22.7708 22.8438 22.3385 22.8438 21.8281C22.8438 21.3177 23.0312 20.875 23.4062 20.5C23.7604 20.125 24.1979 19.9375 24.7188 19.9375C25.2396 19.9375 25.6875 20.125 26.0625 20.5L30.0312 24.4688L31.8125 22.6875L35.3125 26.25C35.5625 26.5 35.6875 26.7917 35.6875 27.125C35.6875 27.4583 35.5625 27.75 35.3125 28C35.0625 28.25 34.7708 28.375 34.4375 28.375C34.1042 28.375 33.8125 28.25 33.5625 28L22.0625 39.5C21.8125 39.75 21.5365 39.9323 21.2344 40.0469C20.9323 40.1615 20.625 40.2188 20.3125 40.2188C20 40.2188 19.6875 40.1562 19.375 40.0312C19.0625 39.9062 18.7812 39.7292 18.5312 39.5Z" fill="#73B130"/>
</g>
<defs>
<filter id="filter0_d_27_293" x="0" y="0" width="57" height="57" filterUnits="userSpaceOnUse" color-interpolation-filters="sRGB">
<feFlood flood-opacity="0" result="BackgroundImageFix"/>
<feColorMatrix in="SourceAlpha" type="matrix" values="0 0 0 0 0 0 0 0 0 0 0 0 0 0 0 0 0 0 127 0" result="hardAlpha"/>
<feOffset dx="1" dy="1"/>
<feComposite in2="hardAlpha" operator="out"/>
<feColorMatrix type="matrix" values="0 0 0 0 0.45098 0 0 0 0 0.694118 0 0 0 0 0.188235 0 0 0 0.5 0"/>
<feBlend mode="normal" in2="BackgroundImageFix" result="effect1_dropShadow_27_293"/>
<feBlend mode="normal" in="SourceGraphic" in2="effect1_dropShadow_27_293" result="shape"/>
</filter>
</defs>
</svg>
