<svg width="57" height="57" viewBox="0 0 57 57" fill="none" xmlns="http://www.w3.org/2000/svg">
<g filter="url(#filter0_d_27_252)">
<rect width="56" height="56" rx="8" fill="#0D631B" fill-opacity="0.05" shape-rendering="crispEdges"/>
<path d="M21.125 30.5C20.4375 30.5 19.849 30.2552 19.3594 29.7656C18.8698 29.276 18.625 28.6875 18.625 28C18.625 27.3125 18.8698 26.724 19.3594 26.2344C19.849 25.7448 20.4375 25.5 21.125 25.5C21.8125 25.5 22.401 25.7448 22.8906 26.2344C23.3802 26.724 23.625 27.3125 23.625 28C23.625 28.6875 23.3802 29.276 22.8906 29.7656C22.401 30.2552 21.8125 30.5 21.125 30.5ZM21.125 35.5C19.0417 35.5 17.2708 34.7708 15.8125 33.3125C14.3542 31.8542 13.625 30.0833 13.625 28C13.625 25.9167 14.3542 24.1458 15.8125 22.6875C17.2708 21.2292 19.0417 20.5 21.125 20.5C22.5208 20.5 23.7865 20.8438 24.9219 21.5312C26.0573 22.2188 26.9583 23.125 27.625 24.25H38.625L42.375 28L36.75 33.625L34.25 31.75L31.75 33.625L29.0938 31.75H27.625C26.9583 32.875 26.0573 33.7812 24.9219 34.4688C23.7865 35.1562 22.5208 35.5 21.125 35.5ZM21.125 33C22.2917 33 23.3177 32.6458 24.2031 31.9375C25.0885 31.2292 25.6771 30.3333 25.9688 29.25H29.875L31.6875 30.5312L34.25 28.625L36.4688 30.3438L38.8125 28L37.5625 26.75H25.9688C25.6771 25.6667 25.0885 24.7708 24.2031 24.0625C23.3177 23.3542 22.2917 23 21.125 23C19.75 23 18.5729 23.4896 17.5938 24.4688C16.6146 25.4479 16.125 26.625 16.125 28C16.125 29.375 16.6146 30.5521 17.5938 31.5312C18.5729 32.5104 19.75 33 21.125 33Z" fill="#73B130"/>
</g>
<defs>
<filter id="filter0_d_27_252" x="0" y="0" width="57" height="57" filterUnits="userSpaceOnUse" color-interpolation-filters="sRGB">
<feFlood flood-opacity="0" result="BackgroundImageFix"/>
<feColorMatrix in="SourceAlpha" type="matrix" values="0 0 0 0 0 0 0 0 0 0 0 0 0 0 0 0 0 0 127 0" result="hardAlpha"/>
<feOffset dx="1" dy="1"/>
<feComposite in2="hardAlpha" operator="out"/>
<feColorMatrix type="matrix" values="0 0 0 0 0.45098 0 0 0 0 0.694118 0 0 0 0 0.188235 0 0 0 0.5 0"/>
<feBlend mode="normal" in2="BackgroundImageFix" result="effect1_dropShadow_27_252"/>
<feBlend mode="normal" in="SourceGraphic" in2="effect1_dropShadow_27_252" result="shape"/>
</filter>
</defs>
</svg>
