<svg width="60" height="58" viewBox="0 0 60 58" fill="none" xmlns="http://www.w3.org/2000/svg">
<path d="M57.5938 19.5016L33.1558 1.22133C32.0878 0.422344 30.8349 0 29.5328 0C28.2306 0 26.9777 0.422344 25.9097 1.22133L1.47174 19.5016C0.190291 20.4602 -0.311271 22.0607 0.193807 23.5789C0.698768 25.0975 2.05908 26.0786 3.65939 26.0786H10.0578V46.4864C10.0578 48.4977 11.6942 50.1341 13.7056 50.1341H42.3637L48.121 55.8914C48.886 56.6563 49.8906 57.0387 50.8955 57.0387C51.9003 57.0387 52.905 56.6562 53.6697 55.8914C54.4085 55.1527 54.8153 54.1675 54.8153 53.117C54.8153 52.0665 54.4084 51.0812 53.6697 50.3426C52.9311 49.6039 49.0077 45.6804 49.0077 45.6804V26.0786H55.4061C57.0064 26.0786 58.3667 25.0975 58.8717 23.5791C59.3769 22.0607 58.8752 20.4602 57.5938 19.5016ZM53.1746 53.1171C53.1746 53.7293 52.9384 54.3026 52.5096 54.7312C51.6194 55.6214 50.1711 55.6214 49.281 54.7312L40.9187 46.369C40.6548 46.1052 40.6548 45.6757 40.9187 45.4119L43.1903 43.1404C43.3173 43.0133 43.4872 42.9434 43.6687 42.9434C43.8503 42.9434 44.0203 43.0133 44.1473 43.1405L52.5096 51.5026C52.9384 51.9315 53.1746 52.5049 53.1746 53.1171ZM41.5289 42.4815L40.2599 43.7504C39.1869 42.8548 37.7046 42.7289 36.4782 43.4583C34.3848 44.7038 31.983 45.362 29.5328 45.362C22.0295 45.362 15.9251 39.2576 15.9251 31.7544C15.9251 24.2512 22.0294 18.1468 29.5326 18.1468C37.0359 18.1468 43.1402 24.2512 43.1402 31.7544C43.1402 34.2045 42.4819 36.6061 41.2365 38.6999C40.5069 39.9263 40.6329 41.4088 41.5289 42.4815ZM45.3075 41.9803C44.8705 41.5433 44.2885 41.3028 43.6688 41.3028C43.3725 41.3028 43.0853 41.3593 42.8179 41.4646C42.3464 40.9242 42.2741 40.1651 42.6467 39.5386C44.043 37.1913 44.7811 34.4995 44.7811 31.7544C44.7811 23.3466 37.9407 16.5062 29.5329 16.5062C21.125 16.5062 14.2847 23.3466 14.2847 31.7544C14.2847 40.1623 21.125 47.0026 29.533 47.0026C32.2783 47.0026 34.9701 46.2646 37.3172 44.8683C37.9433 44.4956 38.7026 44.5679 39.243 45.0395C38.9156 45.8721 39.0868 46.8572 39.7588 47.5291L40.7231 48.4935H13.7056C12.5989 48.4935 11.6985 47.5931 11.6985 46.4864V23.5177C11.6985 22.8853 11.9551 22.3727 12.4615 21.9941L28.8498 9.73512C29.2577 9.42996 29.8078 9.42996 30.2158 9.73512L46.6042 21.9941C47.1105 22.3727 47.3672 22.8853 47.3672 23.5177V44.0399L45.3075 41.9803ZM57.315 23.0613C57.0368 23.8977 56.2876 24.438 55.4061 24.438H49.0077V23.5177C49.0077 22.3733 48.5031 21.3657 47.5868 20.6803L31.1986 8.42144C30.7087 8.055 30.1328 7.86129 29.5329 7.86129C28.933 7.86129 28.357 8.055 27.8672 8.42144L11.4787 20.6803C10.5624 21.3657 10.0578 22.3733 10.0578 23.5177V24.438H3.65939C2.77791 24.438 2.02861 23.8977 1.75053 23.0612C1.47232 22.225 1.74853 21.3435 2.45435 20.8155L26.8924 2.535C27.6746 1.94988 28.5876 1.64062 29.5328 1.64062C30.4779 1.64062 31.3909 1.94988 32.1731 2.53512L56.611 20.8155C57.3169 21.3435 57.5932 22.225 57.315 23.0613ZM29.5328 20.2269C23.1765 20.2269 18.0053 25.3982 18.0053 31.7544C18.0053 38.1107 23.1765 43.2819 29.5328 43.2819C35.889 43.2819 41.0603 38.1107 41.0603 31.7544C41.0603 25.3982 35.889 20.2269 29.5328 20.2269ZM22.9086 39.0872C23.1992 36.235 25.2275 33.9768 27.8972 33.3128L27.4037 38.2481C27.3841 38.4431 27.4352 38.6388 27.5475 38.7995L28.8653 40.6859C29.0188 40.9055 29.2698 41.0364 29.5377 41.0364C29.8056 41.0364 30.0567 40.9055 30.2101 40.6859L31.5279 38.7995C31.6401 38.6388 31.6912 38.4431 31.6717 38.2481L31.1784 33.3155C33.8431 33.9826 35.8667 36.2385 36.157 39.0872C34.4026 40.6736 32.0788 41.6413 29.5329 41.6413C26.987 41.6413 24.663 40.6736 22.9086 39.0872ZM30.009 38.109L29.5378 38.7836L29.0665 38.1089L29.5377 33.3962L30.009 38.109ZM29.5329 31.4477C28.0207 31.4477 26.7904 30.2175 26.7904 28.7054C26.7904 27.1934 28.0207 25.963 29.5329 25.963C31.0451 25.963 32.2753 27.1932 32.2753 28.7054C32.2753 30.2176 31.0451 31.4477 29.5329 31.4477ZM37.5324 37.5544C37.1217 36.0694 36.3021 34.72 35.1473 33.6588C34.348 32.9243 33.4234 32.3636 32.4268 31.993C33.3389 31.1892 33.9158 30.0137 33.9158 28.7054C33.9158 26.2886 31.9496 24.3224 29.5328 24.3224C27.1159 24.3224 25.1497 26.2886 25.1497 28.7054C25.1497 30.0138 25.7267 31.1892 26.6387 31.993C25.6421 32.3636 24.7176 32.9244 23.9183 33.6588C22.7634 34.72 21.9438 36.0694 21.5331 37.5544C20.3476 35.9238 19.6458 33.9199 19.6458 31.7543C19.6458 26.3026 24.0811 21.8674 29.5326 21.8674C34.9842 21.8674 39.4195 26.3027 39.4195 31.7543C39.4195 33.9199 38.7179 35.9238 37.5324 37.5544Z" fill="#2C7B30"/>
</svg>
