<svg width="80" height="80" viewBox="0 0 80 80" fill="none" xmlns="http://www.w3.org/2000/svg">
<g opacity="0.9">
<path d="M56.7516 60.8108C56.4984 60.3733 56.6484 59.814 57.0859 59.5608L61.8156 56.8296C62.2547 56.5765 62.8125 56.728 63.0656 57.164C63.3187 57.6015 63.1687 58.1608 62.7312 58.414L58.0016 61.1452C57.8578 61.228 57.7 61.2687 57.5453 61.2687C57.2281 61.2687 56.9219 61.1046 56.7516 60.8108ZM72.1344 35.0702C72.0734 35.3093 71.9187 35.514 71.7047 35.6374L68.4719 37.503V60.6733C68.4719 60.9999 68.2969 61.3015 68.0141 61.4655L40.4578 77.3765C40.3156 77.4577 40.1578 77.4983 40 77.4983C39.8422 77.4983 39.6844 77.4577 39.5422 77.3765L11.9844 61.4655C11.7016 61.3015 11.5266 60.9999 11.5266 60.6733V37.5046L8.29375 35.6374C8.07968 35.514 7.925 35.3093 7.86406 35.0702C7.80312 34.8312 7.84218 34.5765 7.97187 34.3671L11.6609 28.3733C11.7437 28.239 11.8562 28.1374 11.9844 28.064L11.9828 28.0608L31.0609 17.0468C25.6109 16.5562 19.3109 16.6015 12.9109 19.5124C12.7906 19.5671 12.6609 19.5937 12.5328 19.5937C12.3594 19.5937 12.1875 19.5452 12.0375 19.4483C11.775 19.2796 11.6172 18.9905 11.6172 18.6796V10.3515C11.6172 9.99365 11.8266 9.66709 12.1531 9.51865C17.3047 7.17646 22.775 6.3249 29.7687 6.78584C29.7719 5.27646 29.9937 3.95459 30.5297 2.97646C30.6891 2.6874 30.9906 2.50615 31.3219 2.50146C31.6797 2.51396 31.9594 2.67334 32.1234 2.95928L34.6125 7.27178C36.4609 7.50771 38.3266 7.78584 40.1359 8.05928C41.6219 8.28428 43.0937 8.50459 44.5562 8.70459L47.8734 2.95928C48.0391 2.67334 48.3562 2.51865 48.675 2.50146C49.0047 2.50459 49.3078 2.68584 49.4672 2.97646C50.2125 4.33428 50.4062 6.4624 50.0547 9.30146C55.7875 9.71709 61.4078 9.3249 67.0859 6.74209C67.3687 6.61397 67.6984 6.6374 67.9594 6.80615C68.2219 6.9749 68.3797 7.26397 68.3797 7.5749V15.903C68.3797 16.2608 68.1703 16.5874 67.8438 16.7358C63.1312 18.8796 58.4062 19.5874 53.7172 19.5874C53.5875 19.5874 53.4562 19.5812 53.3266 19.5812L68.0141 28.0608L68.0125 28.064C68.1406 28.1374 68.2531 28.239 68.3359 28.3733L72.025 34.3671C72.1562 34.5765 72.1953 34.8312 72.1344 35.0702ZM49.3547 19.3983C48.7484 19.3499 48.1437 19.2952 47.5391 19.2327C46.7703 21.3858 45.9328 23.339 45.2984 24.4358L44.9109 25.1062L46.7109 28.2233C50.1906 26.7374 54.3234 28.0546 56.2625 31.4124C56.7031 32.1765 56.9875 32.9874 57.1422 33.8093L65.7297 28.8515L49.3547 19.3983ZM43.8516 23.2687C44.3781 22.2968 45.0375 20.7562 45.6719 19.0187C44.1156 18.8249 42.5656 18.6015 41.0234 18.3702L43.8516 23.2687ZM46.525 8.95615C47.0969 9.0249 47.6672 9.0874 48.2375 9.14365C48.4203 7.70303 48.4391 6.60303 48.3641 5.77334L46.525 8.95615ZM35.7703 9.27178L39.8531 16.3421L40.1391 16.3858C49.2328 17.764 57.8297 19.0671 66.5547 15.3062V8.95928C57.5797 12.5515 48.5812 11.1874 39.8641 9.86709C38.5187 9.6624 37.1437 9.4624 35.7703 9.27178ZM36.2859 23.5202L44.6969 38.089C46.2859 40.8405 49.8172 41.7874 52.5687 40.1983C55.3203 38.6093 56.2672 35.078 54.6781 32.3265C53.0891 29.5749 49.5562 28.628 46.8047 30.2171C46.3672 30.4702 45.8078 30.3187 45.5562 29.8827L31.6234 5.7499C31.1297 10.778 34.625 20.6421 36.2859 23.5202ZM44.7578 40.9608C44.1219 40.4171 43.5562 39.7702 43.1141 39.0046L40 33.6124L36.8875 39.0046C36.4453 39.7702 35.8797 40.4155 35.2437 40.9593L40 43.7062L44.7578 40.9608ZM33.2891 28.2233L35.0891 25.1062L34.7016 24.4358C34.1469 23.4733 33.1609 21.228 32.2156 18.4921L14.2703 28.853L22.8547 33.8093C23.0109 32.978 23.3016 32.1671 23.7359 31.4124C25.675 28.0546 29.8094 26.7374 33.2891 28.2233ZM27.4312 40.1999C30.1844 41.789 33.7156 40.8421 35.3031 38.0905L38.9437 31.7843L36.1437 26.9358L34.4422 29.8843C34.1891 30.3218 33.6297 30.4718 33.1937 30.2187C30.4406 28.6312 26.9109 29.5765 25.3219 32.328C23.7328 35.078 24.6781 38.6108 27.4312 40.1999ZM31.1875 15.2202C30.5641 13.0187 30.0609 10.7155 29.8609 8.6249C23.3281 8.17178 18.2078 8.89209 13.4484 10.9452V17.2921C19.7578 14.764 25.8672 14.7437 31.1875 15.2202ZM10.0234 34.5249L35.9969 49.5202L38.7266 45.0843L33.5109 42.0733C32.5047 42.5405 31.4109 42.7983 30.2969 42.7999C29.0094 42.7999 27.7062 42.4733 26.5141 41.7843C24.7578 40.7702 23.5016 39.1327 22.9766 37.1749C22.8609 36.7405 22.7891 36.3015 22.75 35.8624L12.7516 30.0905L10.0234 34.5249ZM13.3562 60.1452L21.7984 65.0187V59.5858C21.7984 59.2593 21.9734 58.9577 22.2562 58.7937C22.5391 58.6311 22.8875 58.6311 23.1719 58.7937L30.1875 62.8452C30.4703 63.0093 30.6453 63.3108 30.6453 63.6374V70.1265L39.0859 74.9999V47.9921L37.0891 51.2358C36.9172 51.5155 36.6172 51.6702 36.3094 51.6718C36.1547 51.6718 35.9969 51.6327 35.8531 51.5483L13.3562 38.5608V60.1452ZM28.8141 64.1655L23.6266 61.1702V66.0749L28.8141 69.0702V64.1655ZM66.6437 38.5608L44.1469 51.5499C44.0031 51.6327 43.8453 51.6733 43.6906 51.6733C43.3828 51.6733 43.0828 51.5187 42.9109 51.2374L40.9141 47.9952V74.9999L66.6437 60.1452V38.5608ZM69.9766 34.5249L67.2469 30.089L57.2453 35.8624C57.0359 38.2468 55.7109 40.4983 53.4844 41.7827C52.2922 42.4702 50.9875 42.7983 49.7016 42.7983C48.5891 42.7983 47.4937 42.5405 46.4875 42.0733L41.2719 45.0843L44.0016 49.5202L69.9766 34.5249ZM57.5453 56.0796C57.7 56.0796 57.8578 56.0405 58.0016 55.9562L62.7312 53.2249C63.1687 52.9718 63.3187 52.4124 63.0656 51.9749C62.8125 51.5374 62.2547 51.3874 61.8156 51.6405L57.0859 54.3718C56.6484 54.6249 56.4984 55.1843 56.7516 55.6218C56.9219 55.9155 57.2281 56.0796 57.5453 56.0796ZM26.4859 32.9999C27.7031 30.8905 30.4109 30.164 32.5203 31.3827C34.6297 32.5999 35.3547 35.3077 34.1375 37.4171C33.5469 38.439 32.5953 39.1702 31.4562 39.4749C31.075 39.5765 30.6891 39.6265 30.3062 39.6265C29.5406 39.6265 28.7859 39.4265 28.1047 39.0327C25.9937 37.8155 25.2687 35.1093 26.4859 32.9999ZM29.0172 37.4499C29.6156 37.7952 30.3141 37.8874 30.9812 37.7093C31.6484 37.5296 32.2078 37.1015 32.5531 36.503C32.8984 35.9046 32.9906 35.2062 32.8125 34.539C32.6328 33.8702 32.2047 33.3124 31.6062 32.9671C31.2 32.7327 30.7547 32.6202 30.3172 32.6202C29.4219 32.6202 28.55 33.0843 28.0719 33.914C27.3578 35.1499 27.7812 36.7358 29.0172 37.4499ZM45.8625 37.4171C44.6453 35.3077 45.3703 32.5999 47.4797 31.3827C49.5891 30.1655 52.2969 30.8905 53.5141 32.9999C54.7312 35.1093 54.0062 37.8171 51.8969 39.0343C51.2031 39.4343 50.4453 39.6249 49.6953 39.6249C48.1687 39.6249 46.6797 38.8327 45.8625 37.4171ZM47.4469 36.503C48.1609 37.739 49.7469 38.164 50.9828 37.4499C52.2187 36.7358 52.6437 35.1499 51.9312 33.914C51.4531 33.0843 50.5812 32.6202 49.6859 32.6202C49.2469 32.6202 48.8031 32.7312 48.3969 32.9671C47.7984 33.3124 47.3703 33.8702 47.1906 34.539C47.0094 35.2062 47.1016 35.903 47.4469 36.503Z" fill="#2C7B30"/>
</g>
</svg>
