<svg width="57" height="57" viewBox="0 0 57 57" fill="none" xmlns="http://www.w3.org/2000/svg">
<g filter="url(#filter0_d_27_285)">
<rect width="56" height="56" rx="8" fill="#0D631B" fill-opacity="0.05" shape-rendering="crispEdges"/>
<path d="M36.9219 39.2656L30.0781 32.4219L32.7031 29.7969L39.5469 36.6406L36.9219 39.2656ZM19.6719 39.2656L17.0469 36.6406L25.6719 28.0156L23.5469 25.8906L22.6719 26.7656L21.0781 25.1719V27.7344L20.2031 28.6094L16.4219 24.8281L17.2969 23.9531H19.8594L18.2969 22.3906L22.7344 17.9531C23.151 17.5365 23.599 17.2344 24.0781 17.0469C24.5573 16.8594 25.0469 16.7656 25.5469 16.7656C26.0469 16.7656 26.5365 16.8594 27.0156 17.0469C27.4948 17.2344 27.9427 17.5365 28.3594 17.9531L25.4844 20.8281L27.0469 22.3906L26.1719 23.2656L28.2969 25.3906L31.1094 22.5781C31.026 22.349 30.9583 22.1094 30.9062 21.8594C30.8542 21.6094 30.8281 21.3594 30.8281 21.1094C30.8281 19.8802 31.25 18.8438 32.0938 18C32.9375 17.1562 33.974 16.7344 35.2031 16.7344C35.5156 16.7344 35.8125 16.7656 36.0938 16.8281C36.375 16.8906 36.6615 16.9844 36.9531 17.1094L33.8594 20.2031L36.1094 22.4531L39.2031 19.3594C39.349 19.651 39.4479 19.9375 39.5 20.2188C39.5521 20.5 39.5781 20.7969 39.5781 21.1094C39.5781 22.3385 39.1562 23.375 38.3125 24.2188C37.4688 25.0625 36.4323 25.4844 35.2031 25.4844C34.9531 25.4844 34.7031 25.4635 34.4531 25.4219C34.2031 25.3802 33.9635 25.3073 33.7344 25.2031L19.6719 39.2656Z" fill="#73B130"/>
</g>
<defs>
<filter id="filter0_d_27_285" x="0" y="0" width="57" height="57" filterUnits="userSpaceOnUse" color-interpolation-filters="sRGB">
<feFlood flood-opacity="0" result="BackgroundImageFix"/>
<feColorMatrix in="SourceAlpha" type="matrix" values="0 0 0 0 0 0 0 0 0 0 0 0 0 0 0 0 0 0 127 0" result="hardAlpha"/>
<feOffset dx="1" dy="1"/>
<feComposite in2="hardAlpha" operator="out"/>
<feColorMatrix type="matrix" values="0 0 0 0 0.45098 0 0 0 0 0.694118 0 0 0 0 0.188235 0 0 0 0.5 0"/>
<feBlend mode="normal" in2="BackgroundImageFix" result="effect1_dropShadow_27_285"/>
<feBlend mode="normal" in="SourceGraphic" in2="effect1_dropShadow_27_285" result="shape"/>
</filter>
</defs>
</svg>
