<svg width="57" height="57" viewBox="0 0 57 57" fill="none" xmlns="http://www.w3.org/2000/svg">
<g filter="url(#filter0_d_27_260)">
<rect width="56" height="56" rx="8" fill="#0D631B" fill-opacity="0.05" shape-rendering="crispEdges"/>
<path d="M15.5 39.25V16.75H28V21.75H40.5V39.25H15.5ZM18 36.75H20.5V34.25H18V36.75ZM18 31.75H20.5V29.25H18V31.75ZM18 26.75H20.5V24.25H18V26.75ZM18 21.75H20.5V19.25H18V21.75ZM23 36.75H25.5V34.25H23V36.75ZM23 31.75H25.5V29.25H23V31.75ZM23 26.75H25.5V24.25H23V26.75ZM23 21.75H25.5V19.25H23V21.75ZM28 36.75H38V24.25H28V26.75H30.5V29.25H28V31.75H30.5V34.25H28V36.75ZM33 29.25V26.75H35.5V29.25H33ZM33 34.25V31.75H35.5V34.25H33Z" fill="#73B130"/>
</g>
<defs>
<filter id="filter0_d_27_260" x="0" y="0" width="57" height="57" filterUnits="userSpaceOnUse" color-interpolation-filters="sRGB">
<feFlood flood-opacity="0" result="BackgroundImageFix"/>
<feColorMatrix in="SourceAlpha" type="matrix" values="0 0 0 0 0 0 0 0 0 0 0 0 0 0 0 0 0 0 127 0" result="hardAlpha"/>
<feOffset dx="1" dy="1"/>
<feComposite in2="hardAlpha" operator="out"/>
<feColorMatrix type="matrix" values="0 0 0 0 0.45098 0 0 0 0 0.694118 0 0 0 0 0.188235 0 0 0 0.5 0"/>
<feBlend mode="normal" in2="BackgroundImageFix" result="effect1_dropShadow_27_260"/>
<feBlend mode="normal" in="SourceGraphic" in2="effect1_dropShadow_27_260" result="shape"/>
</filter>
</defs>
</svg>
